<?xml version="1.0" standalone="no"?>
<!DOCTYPE svg PUBLIC "-//W3C//DTD SVG 20010904//EN"
 "http://www.w3.org/TR/2001/REC-SVG-20010904/DTD/svg10.dtd">
<svg version="1.0" xmlns="http://www.w3.org/2000/svg"
 width="300.000000pt" height="304.000000pt" viewBox="0 0 300.000000 304.000000"
 preserveAspectRatio="xMidYMid meet">
<metadata>
Created by potrace 1.10, written by Peter Selinger 2001-2011
</metadata>
<g transform="translate(0.000000,304.000000) scale(0.100000,-0.100000)"
fill="white" stroke="none">
<path d="M389 1957 c-18 -12 -44 -38 -56 -56 -22 -33 -23 -42 -23 -241 0 -198
1 -208 23 -240 12 -18 35 -43 50 -54 28 -21 30 -21 1145 -24 614 -1 1127 0
1139 3 30 7 81 52 99 87 13 24 16 69 15 229 0 221 -6 250 -65 292 l-31 22
-1131 3 -1131 2 -34 -23z m2307 -13 c67 -49 69 -57 72 -272 3 -221 -3 -245
-68 -289 l-33 -23 -1119 0 c-1241 0 -1155 -5 -1200 67 -22 36 -23 49 -26 223
-3 176 -2 187 20 230 17 33 35 51 68 68 l45 22 1107 -2 c1100 -3 1107 -3 1134
-24z"/>
<path d="M774 1841 c3 -4 22 -11 42 -14 54 -9 74 -32 74 -84 0 -61 -19 -100
-76 -157 -116 -114 -270 -125 -301 -21 l-11 40 -1 -35 c-1 -53 30 -97 79 -110
49 -13 148 8 194 42 21 15 31 18 34 9 2 -6 17 7 33 31 16 24 40 58 54 77 70
95 50 194 -46 221 -42 12 -82 13 -75 1z"/>
<path d="M1560 1835 c0 -13 63 -15 510 -15 l510 0 -2 -172 -3 -173 -505 0
c-469 -1 -505 -2 -508 -18 -3 -16 30 -17 520 -15 l523 3 3 203 2 202 -525 0
c-460 0 -525 -2 -525 -15z"/>
<path d="M680 1805 l-1 -30 -14 25 c-14 25 -14 25 -15 3 0 -13 -4 -23 -10 -23
-5 0 -10 -4 -10 -8 0 -5 18 -9 40 -9 43 0 47 8 25 47 l-14 25 -1 -30z"/>
<path d="M756 1743 c-5 -30 -15 -58 -26 -68 -15 -13 -17 -22 -9 -42 11 -31 12
-63 0 -63 -5 0 -11 18 -15 40 -4 27 -11 40 -22 40 -8 0 -28 15 -45 32 -41 46
-36 21 11 -50 23 -34 40 -72 40 -88 l0 -27 26 24 c40 36 64 96 63 159 -1 83
-14 108 -23 43z"/>
<path d="M1611 1761 c-11 -7 -13 -31 -9 -116 6 -100 11 -126 23 -113 3 3 4 58
3 121 -3 97 -5 115 -17 108z"/>
<path d="M980 1741 c-14 -28 -13 -74 4 -96 11 -15 27 -19 72 -19 52 -1 59 -3
59 -21 0 -18 -8 -20 -73 -23 -69 -3 -73 -4 -70 -25 3 -20 10 -22 69 -25 51 -2
71 1 83 13 19 19 22 95 4 113 -7 7 -38 12 -70 12 -55 0 -58 1 -58 25 0 24 2
25 70 25 63 0 70 2 70 20 0 18 -7 20 -75 20 -63 0 -76 -3 -85 -19z"/>
<path d="M1170 1715 c0 -32 10 -66 35 -115 l35 -70 50 0 c47 0 50 2 50 25 0
23 -3 25 -48 25 l-48 0 -28 59 c-21 44 -27 66 -21 90 5 24 3 31 -9 31 -12 0
-16 -11 -16 -45z"/>
<path d="M1223 1725 c-13 -27 -14 -38 -5 -47 8 -8 14 -5 21 15 9 22 17 27 46
27 28 0 35 4 35 20 0 17 -7 20 -40 20 -36 0 -42 -4 -57 -35z"/>
<path d="M1360 1645 c0 -96 3 -115 15 -115 12 0 15 19 15 115 0 96 -3 115 -15
115 -12 0 -15 -19 -15 -115z"/>
<path d="M1420 1651 c0 -63 4 -112 10 -116 6 -4 10 27 10 87 0 51 3 103 6 116
5 16 2 22 -10 22 -14 0 -16 -15 -16 -109z"/>
<path d="M1802 1748 c-14 -14 -16 -86 -3 -107 6 -10 29 -15 68 -15 52 -1 58
-3 61 -23 3 -22 0 -23 -67 -23 -69 0 -71 -1 -71 -25 0 -24 2 -25 69 -25 61 0
72 3 85 22 19 27 21 78 4 101 -9 11 -31 17 -73 19 -52 3 -60 6 -60 23 0 18 8
20 73 23 64 3 72 5 72 22 0 18 -7 20 -73 20 -43 0 -78 -5 -85 -12z"/>
<path d="M2011 1649 c-23 -61 -39 -114 -37 -117 15 -14 34 14 56 82 14 42 27
76 30 76 3 0 18 -36 34 -80 17 -48 34 -80 42 -80 8 0 14 4 14 9 0 19 -78 215
-87 218 -5 2 -28 -47 -52 -108z"/>
<path d="M2170 1645 c0 -96 3 -115 15 -115 11 0 15 12 15 50 0 34 4 50 13 50
7 0 30 -22 50 -50 23 -31 45 -50 58 -50 16 0 18 4 10 18 -5 9 -21 28 -35 41
-31 29 -34 45 -6 38 30 -8 50 19 50 67 0 54 -13 66 -72 66 -41 0 -48 -3 -48
-19 0 -17 8 -20 48 -23 39 -3 47 -6 47 -23 0 -17 -8 -20 -57 -23 l-58 -3 0 46
c0 33 -4 45 -15 45 -12 0 -15 -19 -15 -115z"/>
<path d="M2368 1645 c2 -63 7 -115 13 -115 5 0 9 50 9 115 0 85 -3 115 -12
115 -10 0 -12 -28 -10 -115z"/>
<path d="M2410 1740 c0 -17 7 -20 50 -20 l50 0 0 -70 0 -70 -50 0 c-47 0 -50
-2 -50 -25 0 -23 3 -25 49 -25 40 0 53 4 65 22 18 26 22 141 6 182 -9 24 -15
26 -65 26 -48 0 -55 -2 -55 -20z"/>
<path d="M683 1704 c-7 -19 11 -39 26 -30 16 10 13 33 -4 40 -9 3 -18 -1 -22
-10z"/>
<path d="M1171 1578 c-1 -27 4 -48 9 -48 19 0 21 27 6 61 l-14 34 -1 -47z"/>
<path d="M1460 1555 c0 -24 3 -25 60 -25 57 0 60 1 60 25 0 24 -3 25 -60 25
-57 0 -60 -1 -60 -25z"/>
<path d="M1650 1555 c0 -24 3 -25 60 -25 57 0 60 1 60 25 0 24 -3 25 -60 25
-57 0 -60 -1 -60 -25z"/>
<path d="M2040 1573 c0 -17 19 -35 29 -29 18 12 12 36 -9 36 -11 0 -20 -3 -20
-7z"/>
<path d="M1330 1199 c0 -44 4 -68 10 -64 6 3 10 14 10 23 0 13 5 12 20 -8 10
-14 22 -21 26 -17 4 4 -2 17 -14 29 l-22 22 22 23 c14 15 17 23 8 23 -7 0 -19
-8 -26 -17 -12 -16 -13 -14 -14 20 0 20 -4 37 -10 37 -6 0 -10 -30 -10 -71z"/>
<path d="M1460 1206 c0 -36 5 -68 11 -71 15 -10 15 -8 11 68 -5 86 -22 88 -22
3z"/>
<path d="M1510 1206 c0 -36 5 -68 11 -71 15 -10 15 -8 11 68 -5 86 -22 88 -22
3z"/>
<path d="M1870 1250 c0 -15 -7 -20 -25 -20 -18 0 -28 -7 -36 -26 -14 -39 11
-74 51 -71 l30 2 0 68 c0 38 -4 67 -10 67 -5 0 -10 -9 -10 -20z m-2 -69 c-2
-18 -9 -26 -23 -26 -23 0 -32 30 -15 50 18 21 42 7 38 -24z"/>
<path d="M790 1224 c0 -22 24 -94 31 -94 5 0 12 14 16 30 3 17 9 30 13 30 5 0
11 -13 15 -30 9 -41 22 -38 34 8 14 47 14 65 1 57 -5 -3 -10 -17 -10 -31 0
-34 -16 -30 -23 6 -8 39 -24 38 -32 0 -8 -35 -25 -31 -25 6 0 13 -4 24 -10 24
-5 0 -10 -3 -10 -6z"/>
<path d="M934 1184 c13 -53 27 -57 42 -12 l10 31 10 -32 c12 -44 25 -41 41 11
15 52 15 48 4 48 -5 0 -13 -17 -18 -37 l-10 -38 -8 38 c-4 20 -13 37 -20 37
-7 0 -16 -17 -20 -37 l-8 -38 -10 38 c-5 20 -13 37 -17 37 -4 0 -3 -21 4 -46z"/>
<path d="M1060 1218 c0 -26 21 -88 30 -88 5 0 12 16 16 35 7 40 19 38 27 -5 9
-43 23 -37 36 14 13 55 13 56 1 56 -5 0 -10 -11 -10 -24 0 -37 -17 -41 -25 -6
-8 38 -24 39 -31 0 -8 -36 -24 -40 -24 -6 0 14 -4 28 -10 31 -5 3 -10 0 -10
-7z"/>
<path d="M1247 1223 c-14 -14 -6 -34 18 -43 14 -5 25 -15 25 -21 0 -7 -10 -9
-25 -7 -30 6 -33 -8 -4 -17 26 -9 52 15 43 38 -3 9 -15 17 -25 17 -11 0 -19 7
-19 16 0 11 6 14 20 9 11 -4 20 -2 20 4 0 12 -43 15 -53 4z"/>
<path d="M1410 1186 c0 -25 5 -48 10 -51 6 -4 10 13 10 44 0 28 -4 51 -10 51
-5 0 -10 -20 -10 -44z"/>
<path d="M1557 1217 c-7 -18 4 -34 26 -38 28 -6 19 -24 -10 -22 -24 2 -25 1
-11 -13 20 -21 58 -10 58 17 0 12 -10 23 -26 29 -29 12 -22 34 8 24 14 -4 18
-2 14 5 -10 15 -53 14 -59 -2z"/>
<path d="M1645 1219 c-4 -6 2 -9 17 -7 30 4 36 -15 6 -22 -23 -6 -39 -49 -19
-51 64 -8 69 -5 64 31 -3 19 -6 41 -9 48 -4 15 -50 16 -59 1z"/>
<path d="M1740 1177 c0 -29 4 -46 10 -42 6 3 10 22 10 41 0 23 5 34 14 34 8 0
18 5 21 10 4 6 -5 10 -24 8 -30 -2 -31 -4 -31 -51z"/>
<path d="M1972 1218 c-17 -17 -15 -54 4 -72 19 -19 36 -20 52 -4 17 17 15 33
-3 18 -21 -17 -45 -5 -45 24 0 27 22 40 39 23 13 -13 26 -3 16 12 -8 15 -48
14 -63 -1z"/>
<path d="M2058 1205 c-9 -19 -8 -29 6 -50 18 -28 28 -30 57 -15 22 12 26 59 7
78 -21 21 -57 14 -70 -13z m60 -24 c-2 -18 -9 -26 -23 -26 -23 0 -32 30 -15
50 18 21 42 7 38 -24z"/>
<path d="M2165 1184 c0 -23 3 -46 8 -50 4 -4 7 9 7 28 0 34 20 65 33 51 4 -3
7 -24 7 -45 0 -52 18 -48 22 5 4 60 31 58 38 -3 3 -25 8 -40 11 -35 3 6 4 29
1 52 l-4 42 -62 -1 -62 -1 1 -43z"/>
</g>
</svg>
