<?xml version="1.0" standalone="no"?>
<!DOCTYPE svg PUBLIC "-//W3C//DTD SVG 20010904//EN"
 "http://www.w3.org/TR/2001/REC-SVG-20010904/DTD/svg10.dtd">
<svg version="1.0" xmlns="http://www.w3.org/2000/svg"
 width="300.000000pt" height="292.000000pt" viewBox="0 0 300.000000 292.000000"
 preserveAspectRatio="xMidYMid meet">
<metadata>
Created by potrace 1.10, written by Peter Selinger 2001-2011
</metadata>
<g transform="translate(0.000000,292.000000) scale(0.100000,-0.100000)"
fill="white" stroke="none">
<path d="M245 1644 l-80 -35 -29 -75 c-16 -41 -32 -76 -36 -79 -5 -3 38 -108
68 -163 4 -8 43 -28 87 -46 l80 -32 90 37 c50 21 87 39 83 39 -4 0 8 36 27 81
24 58 31 86 24 97 -5 10 -22 46 -38 82 l-28 65 -74 29 c-41 15 -78 30 -84 31
-5 2 -46 -12 -90 -31z m68 -1 c-12 -34 -36 -53 -67 -53 -61 0 -59 16 6 42 35
14 64 27 65 27 1 1 0 -7 -4 -16z m145 -45 c-27 -16 -66 -8 -87 18 -33 42 -26
44 39 17 41 -18 56 -29 48 -35z m-49 -26 c31 -16 33 -20 36 -76 3 -40 -1 -66
-11 -80 -8 -11 -14 -29 -14 -39 0 -24 -47 -70 -62 -61 -7 4 -27 7 -46 6 -39
-3 -62 12 -62 40 0 22 -29 82 -37 75 -2 -3 1 -15 7 -27 6 -12 14 -37 16 -54 3
-28 0 -35 -23 -45 -21 -10 -29 -9 -38 1 -13 15 -57 119 -52 124 2 2 18 7 35
10 l32 7 -4 -74 -5 -74 14 79 c8 44 19 91 24 105 6 14 11 37 13 51 2 19 13 29
48 42 48 19 76 16 129 -10z m-188 8 c6 0 5 -8 -1 -20 -6 -11 -10 -26 -9 -33 6
-44 -5 -43 -16 3 -8 30 -14 57 -15 59 0 2 7 0 16 -3 9 -3 20 -6 25 -6z m255
-21 c-3 -17 -6 -40 -6 -50 0 -11 -5 -19 -11 -19 -7 0 -9 12 -5 34 4 20 2 37
-4 41 -14 9 -3 25 17 25 12 0 14 -7 9 -31z m58 -77 c7 -20 4 -22 -29 -22 -40
0 -39 -9 -19 93 l7 32 17 -40 c9 -22 20 -50 24 -63z m-350 51 c10 -66 9 -70
-29 -75 -20 -2 -34 -1 -33 2 2 3 12 29 22 58 11 29 23 52 27 52 3 0 9 -17 13
-37z m333 -89 l30 -6 -25 -65 -26 -66 -13 64 c-6 35 -12 67 -12 72 -1 9 7 9
46 1z m-43 -79 l6 -50 -26 27 c-25 25 -26 29 -14 58 16 39 26 29 34 -35z m-22
-37 c21 -39 17 -45 -48 -71 -62 -24 -65 -25 -74 -7 -15 27 -13 30 19 30 16 0
34 7 41 15 9 11 23 14 44 10 29 -5 29 -4 9 7 -13 6 -23 17 -23 25 0 21 18 15
32 -9z m-160 -40 c48 -54 39 -59 -45 -25 l-57 23 32 16 c18 9 35 17 37 17 2 1
17 -13 33 -31z m73 12 c4 -6 -8 -10 -29 -10 -20 0 -36 5 -36 10 0 6 13 10 29
10 17 0 33 -4 36 -10z"/>
<path d="M242 1498 c3 -7 15 -14 27 -16 20 -3 22 -8 17 -37 -5 -23 -1 -43 12
-67 22 -38 42 -42 57 -12 6 12 16 29 23 37 9 10 10 22 2 41 -9 24 -7 28 16 36
36 14 21 31 -16 18 -17 -5 -32 -14 -35 -19 -3 -4 -13 -5 -23 -2 -15 6 -15 5
-3 -11 13 -15 15 -16 23 -2 19 34 32 3 22 -51 -6 -31 -60 -33 -69 -3 -3 11 -3
24 0 30 17 28 13 51 -11 60 -34 13 -46 12 -42 -2z"/>
<path d="M630 1490 l0 -120 83 0 c69 0 87 3 100 18 21 23 22 75 2 92 -11 9
-12 17 -5 30 16 29 12 49 -15 75 -21 22 -33 25 -95 25 l-70 0 0 -120z m138 48
c-3 -20 -10 -23 -50 -26 -46 -3 -48 -2 -48 22 0 24 3 26 51 26 47 0 50 -2 47
-22z m20 -100 c4 -23 -25 -36 -73 -35 -40 2 -54 19 -42 50 8 20 111 7 115 -15z"/>
<path d="M880 1490 l0 -120 88 0 c81 0 88 2 88 20 0 18 -7 20 -66 20 l-65 0 3
100 4 100 -26 0 -26 0 0 -120z"/>
<path d="M1154 1601 c-37 -16 -74 -70 -74 -107 0 -100 102 -156 187 -104 64
39 66 145 3 192 -30 22 -87 31 -116 19z m96 -61 c28 -28 26 -75 -5 -105 -30
-30 -54 -31 -89 -4 -30 24 -35 72 -10 107 20 29 76 30 104 2z"/>
<path d="M1400 1588 c-112 -76 -56 -230 78 -215 50 5 65 16 56 41 -5 13 -13
16 -33 10 -66 -19 -111 6 -111 63 0 58 57 91 109 63 14 -7 23 -5 36 10 16 17
16 19 -3 29 -11 6 -37 13 -58 16 -31 5 -46 2 -74 -17z"/>
<path d="M1595 1490 c0 -118 0 -120 23 -120 20 0 22 5 22 53 l0 52 48 -52 c29
-31 58 -53 75 -56 15 -2 27 -1 27 2 0 3 -24 33 -54 67 l-54 60 50 57 50 57
-30 0 c-24 0 -37 -10 -68 -51 l-39 -50 -3 50 c-3 45 -6 51 -25 51 -21 0 -22
-3 -22 -120z"/>
<path d="M1883 1595 c-116 -50 -77 -225 51 -225 36 0 86 18 86 30 0 21 -31 32
-60 21 -78 -27 -135 62 -76 118 24 23 55 25 96 7 9 -4 20 2 28 14 11 19 10 22
-22 35 -43 18 -62 18 -103 0z"/>
<path d="M2070 1490 l0 -120 26 0 c26 0 26 1 20 50 l-7 50 61 0 60 0 0 -50 c0
-45 2 -50 23 -50 22 0 22 2 22 120 0 118 0 120 -22 120 -21 0 -23 -5 -23 -50
l0 -50 -60 0 -61 0 7 50 c6 49 6 50 -20 50 l-26 0 0 -120z"/>
<path d="M2359 1490 l-47 -120 28 0 c19 0 30 6 32 17 5 25 105 27 119 1 5 -10
20 -18 33 -18 24 0 23 1 -23 120 -42 108 -48 119 -71 119 -23 0 -29 -11 -71
-119z m93 5 l17 -45 -40 0 -40 0 16 30 c8 16 15 36 15 45 0 29 16 15 32 -30z"/>
<path d="M2580 1490 l0 -120 25 0 25 0 0 120 0 120 -25 0 -25 0 0 -120z"/>
<path d="M2680 1490 l0 -120 24 0 c24 0 24 1 19 78 l-5 77 82 -82 c44 -46 83
-83 86 -83 2 0 4 56 4 125 l0 125 -26 0 -26 0 4 -75 c2 -41 0 -75 -3 -75 -4 0
-38 34 -76 75 -38 41 -73 75 -76 75 -4 0 -7 -54 -7 -120z"/>
<path d="M640 1307 c0 -52 32 -73 64 -41 20 20 21 74 2 74 -9 0 -16 -12 -18
-32 -2 -18 -7 -33 -13 -33 -5 0 -11 15 -13 33 -4 42 -22 42 -22 -1z"/>
<path d="M769 1310 c-1 -16 -2 -34 -3 -40 -2 -20 19 -10 22 10 3 20 4 20 24
-5 25 -32 30 -28 32 25 2 27 -2 40 -11 40 -7 0 -13 -10 -14 -22 l0 -23 -16 23
c-21 30 -33 28 -34 -8z"/>
<path d="M900 1295 c0 -25 5 -45 10 -45 6 0 10 20 10 45 0 25 -4 45 -10 45 -5
0 -10 -20 -10 -45z"/>
<path d="M960 1335 c0 -10 40 -85 45 -85 5 0 45 75 45 85 0 17 -22 1 -31 -22
l-11 -28 -14 28 c-13 23 -34 37 -34 22z"/>
<path d="M1092 1298 c3 -40 5 -43 36 -46 18 -2 32 1 32 7 0 6 -11 11 -25 11
-14 0 -25 5 -25 10 0 6 9 10 20 10 27 0 25 18 -2 23 -20 4 -19 4 5 6 40 2 33
21 -9 21 l-35 0 3 -42z"/>
<path d="M1210 1296 c0 -25 5 -46 10 -46 6 0 10 7 10 15 0 8 5 15 10 15 6 0
13 -7 16 -15 11 -28 21 -15 20 28 -1 40 -3 42 -33 45 -33 3 -33 3 -33 -42z"/>
<path d="M1334 1325 c-7 -18 3 -35 22 -35 8 0 14 -5 14 -11 0 -6 -9 -9 -20 -6
-23 6 -28 -11 -6 -19 17 -6 56 12 56 27 0 5 -11 14 -25 21 -25 11 -25 31 0 21
8 -3 15 0 15 6 0 16 -50 13 -56 -4z"/>
<path d="M1440 1294 c0 -59 24 -55 28 4 2 33 0 42 -12 42 -12 0 -16 -11 -16
-46z"/>
<path d="M1513 1326 c10 -8 17 -26 17 -45 0 -22 4 -31 13 -28 7 2 11 17 9 35
-2 24 1 32 12 32 9 0 16 5 16 10 0 6 -19 10 -42 10 -38 -1 -41 -2 -25 -14z"/>
<path d="M1624 1315 c9 -13 16 -33 16 -45 0 -25 19 -27 26 -2 3 9 11 29 19 45
12 22 12 27 1 27 -8 0 -17 -8 -21 -17 -6 -17 -7 -17 -19 0 -21 28 -41 22 -22
-8z"/>
<path d="M1810 1325 c-7 -8 -10 -25 -6 -39 13 -51 86 -40 86 13 0 40 -54 58
-80 26z m60 -24 c0 -27 -19 -36 -37 -18 -18 18 -9 37 18 37 12 0 19 -7 19 -19z"/>
<path d="M1940 1295 c0 -25 5 -45 10 -45 6 0 10 10 10 21 0 16 5 20 20 16 11
-3 20 -1 20 4 0 5 -9 9 -20 9 -11 0 -20 5 -20 10 0 6 11 10 25 10 14 0 25 5
25 10 0 6 -16 10 -35 10 -35 0 -35 0 -35 -45z"/>
<path d="M2120 1295 c0 -25 5 -45 10 -45 6 0 10 12 10 28 l1 27 22 -27 c13
-16 26 -28 30 -28 4 0 7 20 7 45 0 25 -4 45 -10 45 -5 0 -10 -12 -10 -26 l0
-27 -21 27 c-29 37 -39 32 -39 -19z"/>
<path d="M2250 1294 c0 -32 4 -44 13 -42 18 7 19 88 1 88 -10 0 -14 -13 -14
-46z"/>
<path d="M2330 1325 c-28 -33 12 -85 54 -69 17 7 23 44 6 44 -5 0 -10 -7 -10
-15 0 -19 -14 -19 -30 0 -16 19 -4 35 26 35 13 0 24 5 24 10 0 16 -56 12 -70
-5z"/>
<path d="M2452 1298 c3 -40 5 -43 36 -46 18 -2 32 1 32 7 0 6 -11 11 -25 11
-14 0 -25 5 -25 10 0 6 9 10 20 10 27 0 25 18 -2 23 -20 4 -19 4 5 6 40 2 33
21 -9 21 l-35 0 3 -42z"/>
<path d="M2570 1296 c0 -25 5 -46 10 -46 6 0 10 7 10 15 0 8 5 15 10 15 6 0
13 -7 16 -15 11 -28 21 -15 20 28 -1 40 -3 42 -33 45 -33 3 -33 3 -33 -42z"/>
<path d="M2690 1295 c0 -25 5 -45 10 -45 6 0 10 20 10 45 0 25 -4 45 -10 45
-5 0 -10 -20 -10 -45z"/>
<path d="M2770 1298 c-23 -47 -21 -55 9 -36 17 11 25 11 42 0 12 -7 23 -11 26
-9 7 7 -36 87 -47 87 -5 0 -19 -19 -30 -42z"/>
</g>
</svg>
