<?xml version="1.0" standalone="no"?>
<!DOCTYPE svg PUBLIC "-//W3C//DTD SVG 20010904//EN"
 "http://www.w3.org/TR/2001/REC-SVG-20010904/DTD/svg10.dtd">
<svg version="1.0" xmlns="http://www.w3.org/2000/svg"
 width="186.000000pt" height="180.000000pt" viewBox="0 0 186.000000 180.000000"
 preserveAspectRatio="xMidYMid meet">
<metadata>
Created by potrace 1.10, written by Peter Selinger 2001-2011
</metadata>
<g transform="translate(0.000000,180.000000) scale(0.100000,-0.100000)"
fill="white" stroke="none">

<path d="M812 1267 c-46 -14 -117 -80 -141 -130 -27 -56 -28 -155 -2 -212 42
-93 125 -145 228 -145 150 1 252 101 253 248 0 73 -15 114 -61 167 -65 73
-180 103 -277 72z m183 -37 c29 -11 69 -51 101 -102 52 -82 15 -231 -68 -274
-15 -8 -28 -19 -28 -25 0 -6 -7 -9 -15 -6 -8 4 -17 2 -20 -3 -4 -6 -32 -10
-63 -10 -45 0 -68 7 -108 30 -59 33 -113 107 -115 154 -2 66 3 102 19 126 9
14 21 34 27 45 12 22 81 72 110 79 27 6 131 -3 160 -14z"/>
<path d="M905 1219 c4 -5 0 -9 -7 -9 -19 -1 -110 -88 -135 -130 l-21 -35 20
-25 c15 -18 18 -32 13 -58 -8 -42 24 -94 72 -117 29 -14 36 -14 60 -1 30 15
109 95 136 136 15 24 15 28 -4 59 -13 21 -19 44 -16 60 9 45 -37 105 -91 120
-20 6 -30 6 -27 0z m70 -59 l39 -40 -24 -25 -24 -25 32 -27 c18 -14 32 -31 32
-37 0 -11 -140 -156 -151 -156 -9 0 -89 78 -89 88 0 5 9 17 20 27 20 19 20 19
-10 50 -16 17 -30 34 -30 38 0 11 144 146 155 147 6 0 28 -18 50 -40z"/>
<path d="M865 1100 c-41 -42 -46 -51 -35 -65 7 -9 20 -15 29 -14 51 5 54 -13
9 -52 -33 -27 -33 -27 -14 -48 l20 -22 53 53 c50 49 52 53 36 70 -9 11 -24 16
-34 13 -32 -11 -32 16 1 50 28 29 31 37 20 50 -20 24 -32 19 -85 -35z"/>
<path d="M254 710 c-51 -20 -31 -83 30 -94 22 -4 36 -13 36 -22 0 -24 -27 -27
-59 -8 -33 20 -51 13 -35 -14 25 -40 103 -40 124 -1 15 28 -5 58 -50 73 -18 6
-35 16 -37 22 -5 16 27 26 43 13 7 -6 23 -9 36 -7 l23 3 -22 23 c-24 23 -53
27 -89 12z"/>
<path d="M1110 630 c0 -80 2 -91 16 -88 25 5 25 171 0 176 -14 3 -16 -8 -16
-88z"/>
<path d="M1170 630 c0 -83 2 -90 19 -90 17 0 20 8 23 53 2 38 7 52 18 52 11 0
16 -14 18 -52 3 -45 6 -53 23 -53 16 0 19 7 19 48 0 63 -22 95 -60 87 -25 -6
-27 -4 -23 19 4 21 1 26 -16 26 -20 0 -21 -5 -21 -90z"/>
<path d="M1452 633 l3 -87 47 -3 c39 -3 49 1 62 19 37 52 2 125 -53 113 -26
-6 -28 -4 -24 19 4 21 1 26 -16 26 -21 0 -22 -4 -19 -87z m86 -27 c-2 -23 -8
-31 -23 -31 -15 0 -21 8 -23 29 -4 30 12 48 35 39 9 -4 13 -17 11 -37z"/>
<path d="M810 695 c0 -7 -8 -19 -17 -24 -17 -10 -17 -12 0 -25 12 -9 15 -21
11 -43 -6 -31 14 -63 41 -63 22 0 29 22 12 35 -21 15 -22 61 -2 69 8 3 15 10
15 16 0 5 -7 10 -15 10 -8 0 -15 9 -15 20 0 11 -7 20 -15 20 -8 0 -15 -7 -15
-15z"/>
<path d="M403 670 c-43 -17 -41 -102 2 -122 29 -13 74 -3 82 18 9 23 -4 29
-33 13 -23 -12 -27 -11 -40 6 -18 24 -18 30 2 50 12 11 20 13 27 6 14 -14 47
-14 47 -2 0 12 -40 41 -55 40 -5 0 -20 -4 -32 -9z"/>
<path d="M532 664 c-16 -11 -22 -25 -22 -53 0 -59 42 -87 91 -61 31 17 22 31
-17 28 -23 -2 -39 2 -41 10 -3 8 9 12 41 12 52 0 58 12 25 54 -23 30 -45 33
-77 10z m56 -31 c2 -8 -6 -13 -22 -13 -25 0 -33 10 -19 24 10 10 36 3 41 -11z"/>
<path d="M649 600 c-1 -44 -2 -86 -3 -92 -1 -7 7 -14 17 -16 13 -3 17 3 17 28
0 29 2 32 25 26 43 -11 65 9 65 59 0 37 -4 47 -26 62 -21 13 -30 14 -45 5 -11
-7 -20 -8 -24 -2 -16 26 -25 3 -26 -70z m79 38 c17 -17 15 -58 -3 -64 -19 -8
-45 13 -45 35 0 17 18 41 30 41 3 0 11 -5 18 -12z"/>
<path d="M894 671 c-2 -2 -4 -33 -4 -68 0 -56 2 -64 18 -61 11 2 16 11 14 27
-6 40 7 71 28 71 13 0 20 7 20 18 0 15 -8 18 -36 18 -19 -1 -37 -3 -40 -5z"/>
<path d="M994 659 l-19 -22 38 7 c29 5 37 4 37 -8 0 -9 -12 -16 -31 -18 -39
-4 -59 -30 -43 -55 8 -13 25 -18 60 -18 l49 0 -3 55 c-5 77 -46 105 -88 59z
m56 -74 c0 -16 -35 -21 -44 -6 -8 12 4 21 26 21 10 0 18 -7 18 -15z"/>
<path d="M1310 626 c0 -68 15 -85 72 -82 l42 2 1 64 c0 54 -3 65 -17 68 -15 3
-18 -4 -18 -48 0 -36 -4 -52 -15 -57 -23 -8 -29 3 -30 55 0 36 -4 47 -17 50
-15 3 -18 -5 -18 -52z"/>
</g>
</svg>
